<svg viewBox="-2 -2 20 20" xmlns="http://www.w3.org/2000/svg">
    <path d="M 7.888 16 c -3.474 -0.003 -6.537 -2.31 -7.543 -5.682 c -1.006 -3.373 0.28 -7.015 3.17 -8.971 a 7.8 7.8 0 0 1 9.385 0.47 c 2.685 2.235 3.611 5.989 2.282 9.244 a 3.123 3.123 0 0 0 -0.172 1.948 v 0.017 l 0.675 2.339 a 0.448 0.448 0 0 1 -0.114 0.426 a 0.434 0.434 0 0 1 -0.42 0.116 l -2.255 -0.672 a 2.99 2.99 0 0 0 -1.989 0.158 A 7.769 7.769 0 0 1 7.888 16 Z m -0.012 -4.25 c 2.042 0 3.698 -1.679 3.698 -3.75 c 0 -2.071 -1.656 -3.75 -3.698 -3.75 S 4.18 5.929 4.18 8 c 0 2.071 1.655 3.75 3.697 3.75 Z"
          fill="#ccc"
          fill-rule="evenodd"/>
</svg>